<svg width="16" height="16" viewBox="0 0 16 16" fill="none" xmlns="http://www.w3.org/2000/svg">
<path d="M8.02803 0V1.25C8.02803 1.66563 8.36123 2 8.7754 2H9.27365C9.68782 2 10.021 1.66563 10.021 1.25V0H11.0175V1.25C11.0175 1.51875 10.9583 1.77187 10.8494 2H13.0105C13.4247 2 13.7579 1.66563 13.7579 1.25V0H14.7544V1.25C14.7544 1.92813 14.3714 2.5125 13.8108 2.80625C13.8295 2.82188 13.8451 2.84062 13.8638 2.85625L16 5V7H12.8455L12.014 9.5V16H9.02452V11.5H7.52978L5.53679 10.6438V11.3719C5.30946 11.6 4.88906 12.0219 4.26937 12.6438L5.44959 16H2.27949C1.37953 13.4406 0.893733 12.0594 0.82211 11.8562C1.24251 11.4375 1.73453 10.9406 2.30128 10.375L1.79992 9.87187C1.7065 9.77812 1.62242 9.68125 1.54768 9.575L1.49163 10.3031L0 10.1875C0.0342546 9.725 0.0778512 9.15938 0.13079 8.5C0.258466 6.80625 1.66602 5.5 3.36006 5.5H9.47295L9.7719 4.5H8.02803V3.5L10.021 3H8.7754C7.81316 3 7.03153 2.21562 7.03153 1.25V0H8.02803ZM12.5123 5C12.7863 5 13.0105 4.775 13.0105 4.5C13.0105 4.225 12.7863 4 12.5123 4C12.2382 4 12.014 4.225 12.014 4.5C12.014 4.775 12.2382 5 12.5123 5Z" fill="#9F7749"/>
</svg>
