<svg width="24" height="24" viewBox="0 0 24 24" fill="none" xmlns="http://www.w3.org/2000/svg">
<path d="M6 0L10.5469 6L6.75 9.75C8.29688 13.0312 10.9688 15.7031 14.25 17.25L18 13.4531L24 18L21 24H20.25C9.04688 24 0 14.9531 0 3.75V3L6 0ZM18.2344 16.4531L16.875 17.8125L17.625 18.3281C19.0781 19.4531 19.9688 20.1094 20.2969 20.3906L21.1406 18.6562L18.2344 16.4531ZM6.23438 7.125L7.54688 5.8125L5.34375 2.85938L3.60938 3.70312L4.21875 4.5C5.34375 5.95312 6 6.84375 6.23438 7.125Z" fill="#375519"/>
</svg>
