<svg width="30" height="23" viewBox="0 0 30 23" fill="none" xmlns="http://www.w3.org/2000/svg"><path d="M2.625 0v6.375h.75L4.125 0h.75l.75 6.375h.75V0h.75L9 6.375c0 1.969-1.5 3.563-3.375 3.75V22.5h-2.25V10.125A3.766 3.766 0 0 1 0 6.375L1.875 0h.75ZM30 0v22.5h-2.25v-8.25H24v-7.5C24 .75 30 0 30 0ZM15.75.75c2.531 0 4.875.89 6.703 2.39a9.338 9.338 0 0 0-.703 3.61 7.48 7.48 0 0 0-6-3 7.4 7.4 0 0 0-4.688 1.64l-.89-3.046A10.63 10.63 0 0 1 15.75.75Zm0 18a7.48 7.48 0 0 0 6-3v.75h3.094c-1.828 3.14-5.203 5.25-9.094 5.25a10.39 10.39 0 0 1-7.875-3.563v-6.421c.14-.047.234-.141.375-.188.188 3.985 3.469 7.172 7.5 7.172Zm5.25-7.5a5.241 5.241 0 0 1-5.25 5.25 5.241 5.241 0 0 1-5.25-5.25A5.241 5.241 0 0 1 15.75 6 5.241 5.241 0 0 1 21 11.25Z" fill="#91C15D"/></svg>