<svg width="16" height="16" viewBox="0 0 16 16" fill="none" xmlns="http://www.w3.org/2000/svg"><path d="M8.028 0v1.25c0 .416.333.75.747.75h.499a.747.747 0 0 0 .747-.75V0h.996v1.25c0 .269-.059.522-.168.75h2.162a.747.747 0 0 0 .747-.75V0h.996v1.25c0 .678-.383 1.263-.943 1.556.018.016.034.035.053.05L16 5v2h-3.155l-.831 2.5V16h-2.99v-4.5H7.53l-1.993-.856v.728l-1.268 1.272L5.45 16H2.28L.822 11.856c.42-.418.913-.915 1.48-1.481L1.8 9.872a2.27 2.27 0 0 1-.252-.297l-.056.728L0 10.187A277.5 277.5 0 0 1 .13 8.5a3.24 3.24 0 0 1 3.23-3h6.113l.299-1H8.028v-1l1.993-.5H8.775a1.748 1.748 0 0 1-1.743-1.75V0h.996Zm4.484 5a.5.5 0 0 0 0-1 .5.5 0 0 0 0 1Z" fill="#9F7749"/></svg>