<svg width="16" height="16" viewBox="0 0 16 16" fill="none" xmlns="http://www.w3.org/2000/svg">
<path d="M10.5 11C9.90625 11 9.34375 10.9062 8.8125 10.75L7.78125 11.7812L7.5625 12H6V14H4V16H0V12.4375L0.21875 12.2188L5.25 7.1875C5.09375 6.65625 5 6.09375 5 5.5C5 2.46875 7.46875 0 10.5 0C13.5312 0 16 2.46875 16 5.5C16 8.53125 13.5312 11 10.5 11ZM11.75 3C11.0625 3 10.5 3.5625 10.5 4.25C10.5 4.9375 11.0625 5.5 11.75 5.5C12.4375 5.5 13 4.9375 13 4.25C13 3.5625 12.4375 3 11.75 3Z" fill="#9F7749"/>
</svg>
