<svg width="16" height="16" viewBox="0 0 16 16" fill="none" xmlns="http://www.w3.org/2000/svg"><path d="M1 1c0-.563.438-1 1-1 .563 0 1 .438 1 1 0 .563-.438 1-1 1-.563 0-1-.438-1-1Zm13 4c0-.563.438-1 1-1 .563 0 1 .438 1 1 0 .563-.438 1-1 1-.563 0-1-.438-1-1Zm1 8c.563 0 1 .438 1 1 0 .563-.438 1-1 1-.563 0-1-.438-1-1 0-.563.438-1 1-1ZM4.687 4.25l.782-.781c.531-.531.875-1.219.937-1.938L6.5.656 8 .844l-.094.844A4.796 4.796 0 0 1 6.531 4.53l-.781.782L4.687 4.25Zm6.532 5.469.25-.25a4.796 4.796 0 0 1 2.844-1.375L15.155 8l.188 1.5-.875.094c-.719.062-1.406.406-1.938.937l-.781.781-1.063-1.062.532-.531Zm4.531-8.406-.313.28c-.468.376-1.062.595-1.656.563-.531 0-.969.406-1 .906L12.72 4a2.463 2.463 0 0 1-2.531 2.344.777.777 0 0 0-.626.218c-.187.125-.468.375-.906.75l-.969-1.156c.438-.343.72-.593.907-.75a2.375 2.375 0 0 1 1.656-.562c.5 0 .938-.407.969-.907L11.28 3c.095-1.344 1.19-2.375 2.532-2.313.22 0 .47-.093.657-.25l.312-.25.969 1.125ZM1 16l-1-1 1.219-3.094 2.875 2.906L1 16Zm4.125-1.594-3.531-3.5.718-1.875 4.657 4.656-1.844.72ZM8 13.281 2.719 8 3.5 6l6.5 6.5-2 .781Z" fill="#9F7749"/></svg>