<svg width="21" height="24" viewBox="0 0 21 24" fill="none" xmlns="http://www.w3.org/2000/svg"><path d="M0 0h21v24H0V0Zm17.25 14.25c0-3.75-3-6.75-6.75-6.75s-6.75 3-6.75 6.75S6.75 21 10.5 21s6.75-3 6.75-6.75ZM4.5 5.625A1.14 1.14 0 0 0 5.625 4.5 1.14 1.14 0 0 0 4.5 3.375 1.14 1.14 0 0 0 3.375 4.5c0 .61.516 1.125 1.125 1.125ZM10.125 4.5A1.14 1.14 0 0 0 9 3.375 1.14 1.14 0 0 0 7.875 4.5c0 .61.516 1.125 1.125 1.125A1.14 1.14 0 0 0 10.125 4.5ZM15 14.25c0 2.484-2.016 4.5-4.5 4.5-2.11 0-3.844-1.453-4.36-3.375h3.235v-2.25H6.141C6.656 11.203 8.39 9.75 10.5 9.75c2.484 0 4.5 2.016 4.5 4.5Z" fill="#91C15D"/></svg>