<svg width="22" height="24" viewBox="0 0 22 24" fill="none" xmlns="http://www.w3.org/2000/svg"><path d="m9.656 0 2.719 2.719 1.36-1.36c3.28 2.72 4.078 5.672 4.078 6.844A6.802 6.802 0 0 1 11.015 15c-3.797 0-6.844-3.047-6.844-6.797C4.172 4.36 7.828 1.125 9.656 0Zm4.078 10.219c0-2.016-2.718-4.078-2.718-4.078S8.25 8.203 8.25 10.219a2.77 2.77 0 0 0 2.766 2.765c1.5 0 2.718-1.265 2.718-2.765ZM21 14.016l.89 2.859-5.953 1.875 5.954 1.875-.891 2.86-10.078-3.141L.89 23.484 0 20.625l5.953-1.875L0 16.875l.89-2.86 10.032 3.188L21 14.016Z" fill="#91C15D"/></svg>