<svg width="21" height="24" viewBox="0 0 21 24" fill="none" xmlns="http://www.w3.org/2000/svg">
<path d="M0 0H21V24H0V0ZM17.25 14.25C17.25 10.5 14.25 7.5 10.5 7.5C6.75 7.5 3.75 10.5 3.75 14.25C3.75 18 6.75 21 10.5 21C14.25 21 17.25 18 17.25 14.25ZM4.5 5.625C5.10938 5.625 5.625 5.10938 5.625 4.5C5.625 3.89062 5.10938 3.375 4.5 3.375C3.89062 3.375 3.375 3.89062 3.375 4.5C3.375 5.10938 3.89062 5.625 4.5 5.625ZM10.125 4.5C10.125 3.89062 9.60938 3.375 9 3.375C8.39062 3.375 7.875 3.89062 7.875 4.5C7.875 5.10938 8.39062 5.625 9 5.625C9.60938 5.625 10.125 5.10938 10.125 4.5ZM15 14.25C15 16.7344 12.9844 18.75 10.5 18.75C8.39062 18.75 6.65625 17.2969 6.14062 15.375H9.375V13.125H6.14062C6.65625 11.2031 8.39062 9.75 10.5 9.75C12.9844 9.75 15 11.7656 15 14.25Z" fill="#91C15D"/>
</svg>
