<svg width="27" height="27" viewBox="0 0 27 27" fill="none" xmlns="http://www.w3.org/2000/svg"><path d="M18.844 0c1.875.094 3.703.797 5.11 2.203l.28.281C25.5 3.938 26.11 5.766 26.11 7.641v.468c-.14 2.391-1.218 4.829-3.14 6.75-2.532 2.579-6.188 3.704-9.282 2.907-1.359-.375-2.953-.282-3.937.75L7.969 20.25l.75.75-5.11 5.11L0 22.5l5.11-5.11.75.75 1.78-1.78c.985-.985 1.079-2.579.75-3.938a10.567 10.567 0 0 1-.28-1.688v-.375c0-2.53 1.124-5.156 3.14-7.218C13.313 1.125 15.938 0 18.469 0h.375Zm-.375 3c-1.688 0-3.563.75-5.11 2.25-1.5 1.547-2.25 3.422-2.25 5.11l.047.468c.094 1.125.516 2.11 1.266 2.86 1.875 1.921 5.672 1.828 8.437-.938 1.407-1.453 2.157-3.188 2.25-4.781V7.64c0-1.313-.422-2.485-1.265-3.329-.75-.75-1.735-1.171-2.86-1.312h-.515Z" fill="#91C15D"/></svg>