<svg width="45" height="42" viewBox="0 0 45 42" fill="none" xmlns="http://www.w3.org/2000/svg"><path d="M15 0h12.5v2.5H45v10H23.75v23.75h-5.234c-.86 2.89-3.516 5-6.641 5A6.836 6.836 0 0 1 5 34.375v-.078L.39 28.672 0 28.203V2.5h15V0Zm12.5 16.25h11.094l.781.86 5 5.624.625.703V36.25h-3.984c-.86 2.89-3.516 5-6.641 5a6.836 6.836 0 0 1-6.875-6.875V16.25Zm8.906 5H32.5V25h7.188l-3.282-3.75ZM11.875 37.5A3.134 3.134 0 0 0 15 34.375a3.134 3.134 0 0 0-3.125-3.125 3.134 3.134 0 0 0-3.125 3.125 3.134 3.134 0 0 0 3.125 3.125ZM37.5 34.375a3.134 3.134 0 0 0-3.125-3.125 3.134 3.134 0 0 0-3.125 3.125 3.134 3.134 0 0 0 3.125 3.125 3.134 3.134 0 0 0 3.125-3.125ZM17.5 12.5h-10V20h10v-7.5Z" fill="#375519"/></svg>