<svg width="21" height="24" viewBox="0 0 21 24" fill="none" xmlns="http://www.w3.org/2000/svg"><path d="M21 0v24H0V0h21ZM10.5 7.5c-3.75 0-6.75 3-6.75 6.75S6.75 21 10.5 21s6.75-3 6.75-6.75-3-6.75-6.75-6.75Zm-7.125-3c0 .61.516 1.125 1.125 1.125A1.14 1.14 0 0 0 5.625 4.5 1.14 1.14 0 0 0 4.5 3.375 1.14 1.14 0 0 0 3.375 4.5ZM9 3.375A1.14 1.14 0 0 0 7.875 4.5c0 .61.516 1.125 1.125 1.125A1.14 1.14 0 0 0 10.125 4.5 1.14 1.14 0 0 0 9 3.375Zm-.984 6.234 1.359 1.313c.469.515.75 1.172.75 1.828 0 .703-.281 1.313-.75 1.828L8.953 15c-.234.188-.328.469-.328.75s.094.563.328.75l1.313 1.36-1.032 1.03-1.359-1.312c-.469-.515-.75-1.125-.75-1.828 0-.656.281-1.313.75-1.828l.422-.422c.234-.188.328-.469.328-.75s-.094-.563-.328-.75l-1.313-1.36 1.032-1.03Zm5.109 1.313c.469.515.75 1.172.75 1.828 0 .703-.281 1.313-.75 1.828l-.422.422c-.234.188-.328.469-.328.75s.094.563.328.75l1.313 1.36-1.032 1.03-1.359-1.312c-.469-.515-.75-1.125-.75-1.828 0-.656.281-1.313.75-1.828l.422-.422c.234-.188.328-.469.328-.75s-.094-.563-.328-.75l-1.313-1.36 1.032-1.03 1.359 1.312Z" fill="#91C15D"/></svg>