<svg width="29" height="29" viewBox="0 0 29 29" fill="none" xmlns="http://www.w3.org/2000/svg"><path d="M8.625 3.375c-.375 0-.75.047-1.125.14V0h2.25v3.516a4.624 4.624 0 0 0-1.125-.141Zm2.813.844 2.484-2.485 1.594 1.594-2.485 2.485a4.331 4.331 0 0 0-1.594-1.594ZM7.64 11.672c-1.172-.469-2.016-1.594-2.016-2.906a3.14 3.14 0 0 1 3.14-3.141c1.454 0 2.672.984 3 2.297l-4.124 3.75Zm-1.829 1.36-2.484 2.484-1.594-1.594 2.485-2.485a4.331 4.331 0 0 0 1.593 1.594ZM3.376 8.624c0 .375.047.75.14 1.125H0V7.5h3.516c-.094.375-.141.75-.141 1.125Zm.844-2.813L1.734 3.329l1.594-1.594L5.813 4.22a4.332 4.332 0 0 0-1.594 1.593Zm21.56 12.565v9.75H8.016v-9.75H5.625V16.5l11.25-10.125L28.125 16.5v1.875h-2.344Zm-11.156-2.25v4.5h4.5v-4.5h-4.5Z" fill="#91C15D"/></svg>