<svg width="30" height="23" viewBox="0 0 30 23" fill="none" xmlns="http://www.w3.org/2000/svg"><path d="M27 4.875V12h-9V4.875c-.375.14-.984.422-1.734.75l-.844-2.11c.422-.14 1.594-.703 3.61-1.546L21 0h3l1.969 1.969c2.015.843 3.187 1.406 3.656 1.547l-.89 2.109c-.75-.328-1.36-.61-1.735-.75ZM21.75 4.5a.74.74 0 0 0-.75.75c0 .422.328.75.75.75a.74.74 0 0 0 .75-.75.74.74 0 0 0-.75-.75Zm2.25.75c0 .422.328.75.75.75a.74.74 0 0 0 .75-.75.74.74 0 0 0-.75-.75.74.74 0 0 0-.75.75ZM13.453 2.766l2.063 4.828.984-.469V13.5h6v.375c0 1.64-1.36 3-3 3h-.047L18.375 22.5H14.25v-4.031A2.922 2.922 0 0 1 12 19.5c-.89 0-1.688-.375-2.25-1.031V22.5H5.625l-1.031-5.625H4.5c-1.64 0-3-1.36-3-3 0-.234.047-.469.094-.703A3.04 3.04 0 0 1 0 10.5c0-1.125.656-2.156 1.594-2.625a4.103 4.103 0 0 1-.094-.75c0-1.64 1.36-3 3-3 .14 0 .328 0 .469.047.328-1.313 1.5-2.297 2.906-2.297.703 0 1.36.234 1.875.656.563-.61 1.36-1.031 2.25-1.031.844 0 1.64.375 2.156.938l-.703.328Z" fill="#91C15D"/></svg>